HIERARCHY
ROOT Hips
{
  OFFSET 54.4088 84.4705 4.7985
  CHANNELS 6 Xposition Yposition Zposition Zrotation Xrotation Yrotation
  JOINT spine
  {
    OFFSET 0 5.95438 0.342407
    CHANNELS 3 Zrotation Xrotation Yrotation
    JOINT spine1
    {
      OFFSET 0 8.85602 0
      CHANNELS 3 Zrotation Xrotation Yrotation
      JOINT spine2
      {
        OFFSET 0 8.48567 0
        CHANNELS 3 Zrotation Xrotation Yrotation
        JOINT Neck
        {
          OFFSET 0 21.7863 1.0387
          CHANNELS 3 Zrotation Xrotation Yrotation
          JOINT Head
          {
            OFFSET 0 6.5822 0
            CHANNELS 3 Zrotation Xrotation Yrotation
            End Site
            {
              OFFSET 0 15.9326 -5.25436
            }
          }
        }
        JOINT RightShoulder
        {
          OFFSET -3.57307 9.16386 -0.497525
          CHANNELS 3 Zrotation Xrotation Yrotation
          JOINT RightArm
          {
            OFFSET 0 12.0192 0
            CHANNELS 3 Zrotation Xrotation Yrotation
            JOINT RightArmRoll
            {
              OFFSET 0 6.06755 0
              CHANNELS 3 Zrotation Xrotation Yrotation
              JOINT RightForeArm
              {
                OFFSET 0 17.6726 0
                CHANNELS 3 Zrotation Xrotation Yrotation
                JOINT RightForeArmRoll
                {
                  OFFSET 0 6.80872 0
                  CHANNELS 3 Zrotation Xrotation Yrotation
                  JOINT RightHand
                  {
                    OFFSET 0 13.6636 0
                    CHANNELS 3 Zrotation Xrotation Yrotation
                    End Site
                    {
                      OFFSET 0 0 0
                    }
                  }
                }
              }
            }
          }
        }
        JOINT LeftShoulder
        {
          OFFSET 3.57307 9.16386 -0.497525
          CHANNELS 3 Zrotation Xrotation Yrotation
          JOINT LeftArm
          {
            OFFSET 0 12.0192 0
            CHANNELS 3 Zrotation Xrotation Yrotation
            JOINT LeftArmRoll
            {
              OFFSET 0 6.06755 0
              CHANNELS 3 Zrotation Xrotation Yrotation
              JOINT LeftForeArm
              {
                OFFSET 0 17.6726 0
                CHANNELS 3 Zrotation Xrotation Yrotation
                JOINT LeftForeArmRoll
                {
                  OFFSET 0 6.80872 0
                  CHANNELS 3 Zrotation Xrotation Yrotation
                  JOINT LeftHand
                  {
                    OFFSET 0 13.6636 0
                    CHANNELS 3 Zrotation Xrotation Yrotation
                    End Site
                    {
                      OFFSET 0 0 0
                    }
                  }
                }
              }
            }
          }
        }
      }
    }
  }
  JOINT RightUpLeg
  {
    OFFSET -5.27774 -0.967797 -0.811858
    CHANNELS 3 Zrotation Xrotation Yrotation
    JOINT RightUpLegRoll
    {
      OFFSET 0 16.0214 0
      CHANNELS 3 Zrotation Xrotation Yrotation
      JOINT RightLeg
      {
        OFFSET 0 -19.8401 0
        CHANNELS 3 Zrotation Xrotation Yrotation
        JOINT RightLegRoll
        {
          OFFSET 0 19.905 0
          CHANNELS 3 Zrotation Xrotation Yrotation
          JOINT RightFoot
          {
            OFFSET 0 16.5675 0
            CHANNELS 3 Zrotation Xrotation Yrotation
            JOINT RightToeBase
            {
              OFFSET 0 13.8496 0
              CHANNELS 3 Zrotation Xrotation Yrotation
              End Site
              {
                OFFSET 0.00587034 6.70728 -0.773117
              }
            }
          }
        }
      }
    }
  }
  JOINT LeftUpLeg
  {
    OFFSET 5.27774 -0.967797 -0.811858
    CHANNELS 3 Zrotation Xrotation Yrotation
    JOINT LeftUpLegRoll
    {
      OFFSET 0 16.0215 0
      CHANNELS 3 Zrotation Xrotation Yrotation
      JOINT LeftLeg
      {
        OFFSET 0 19.84 0
        CHANNELS 3 Zrotation Xrotation Yrotation
        JOINT LeftLegRoll
        {
          OFFSET 0 20.089 0
          CHANNELS 3 Zrotation Xrotation Yrotation
          JOINT LeftFoot
          {
            OFFSET 0 16.3835 0
            CHANNELS 3 Zrotation Xrotation Yrotation
            JOINT LeftToeBase
            {
              OFFSET 0 13.8496 0
              CHANNELS 3 Zrotation Xrotation Yrotation
              End Site
              {
                OFFSET -0.0263083 6.70728 -0.773116
              }
            }
          }
        }
      }
    }
  }
}
MOTION
Frames: 5
Frame Time: 0.00208333
54.9317 84.5021 3.75942 1.51038 -10.7096 0.0241623 -0.185778 -0.433346 0.0490192 -0.369302 3.13621 0.132085 -0.37137 4.78126 0.141 -11.9159 6.37242 -0.47986 13.904 5.71696 -3.45971 63.5718 1.64736 0.430014 124.639 41.5741 -49.2363 -1.5572e-007 -3.73905e-007 4.88896e-007 -12.149 79.4401 7.38822 -5.17349e-006 2.44914e-006 -3 8.0301 -4.95138 0.697613 -71.7049 -5.60111 4.12254 -122.825 37.5355 46.4823 -6.36111e-015 3.18055e-015 6.36111e-015 31.6879 86.3124 -26.9845 4.09506e-006 6.20394e-006 2.99999 -8.03009 -4.95139 -0.69763 175.892 -4.09763 5.88159 180 7.01521e-015 178.814 176.296 11.0781 -179.978 -5.44318e-007 -6.69345e-007 0.150487 -19.7359 69.2762 20.6577 8.13649 25.2326 -3.48773 179.911 -5.87129 -0.149386 4.54188e-006 -4.6773e-006 -1.20809 -2.38933 -8.36328 0.0337936 -4.13338e-007 -2.09623e-006 -0.115387 19.2441 68.7358 -20.1583 -8.13649 25.2327 3.48774 
54.9408 84.5013 3.74823 1.50681 -10.711 0.0264225 -0.185661 -0.431838 0.0490375 -0.370526 3.13913 0.132133 -0.372592 4.78418 0.141108 -11.9046 6.40965 -0.482817 13.897 5.61081 -3.44997 63.5922 1.61664 0.409855 124.516 41.6474 -49.0849 -1.5572e-007 -3.73905e-007 4.88896e-007 -12.1826 79.4758 7.42241 -5.17349e-006 2.44914e-006 -3 8.0301 -4.95138 0.697613 -71.6764 -5.63863 4.13918 -122.774 37.5607 46.422 0 0 -9.54166e-015 31.8702 86.3334 -27.1671 4.09506e-006 6.20394e-006 2.99999 -8.03009 -4.95139 -0.69763 175.896 -4.09821 5.87982 180 7.01521e-015 178.814 176.296 11.0778 -179.978 -5.44318e-007 -6.69345e-007 0.150514 -19.7353 69.2756 20.6571 8.13649 25.2326 -3.48773 179.915 -5.86614 -0.150868 4.54188e-006 -4.6773e-006 -1.20813 -2.38838 -8.3712 0.0340172 -4.13338e-007 -2.09623e-006 -0.115417 19.2441 68.7359 -20.1583 -8.13649 25.2327 3.48774 
54.9369 84.5054 3.74997 1.50297 -10.7104 0.0292216 -0.185597 -0.431019 0.049053 -0.371802 3.14068 0.132175 -0.373867 4.78573 0.141211 -11.8905 6.44938 -0.485787 13.8884 5.5061 -3.43993 63.6116 1.58529 0.389497 124.388 41.7215 -48.9269 -1.5572e-007 -3.73905e-007 4.88896e-007 -12.2111 79.5058 7.45139 -5.17349e-006 2.44914e-006 -3 8.0301 -4.95138 0.697613 -71.6482 -5.67515 4.15539 -122.717 37.5861 46.3532 -3.18055e-015 -9.54166e-015 -0 32.0539 86.3544 -27.351 4.09506e-006 6.20394e-006 2.99999 -8.03009 -4.95139 -0.69763 175.901 -4.09691 5.87781 180 7.01521e-015 178.814 176.296 11.0773 -179.977 -5.44318e-007 -6.69345e-007 0.150541 -19.7349 69.2751 20.6566 8.13649 25.2326 -3.48773 179.919 -5.859 -0.152227 4.54188e-006 -4.6773e-006 -1.20816 -2.3874 -8.37892 0.0342559 -4.13338e-007 -2.09623e-006 -0.115467 19.244 68.7357 -20.1582 -8.13649 25.2327 3.48774 
54.9369 84.5045 3.74891 1.49889 -10.7076 0.0326612 -0.185588 -0.430962 0.0490656 -0.373112 3.14073 0.132209 -0.375174 4.78577 0.141306 -11.8738 6.49063 -0.488741 13.8785 5.40474 -3.42975 63.6292 1.55362 0.369196 124.255 41.7957 -48.761 -1.5572e-007 -3.73905e-007 4.88896e-007 -12.2349 79.5306 7.47554 -5.17349e-006 2.44914e-006 -3 8.0301 -4.95138 0.697613 -71.6208 -5.71022 4.17096 -122.653 37.6115 46.2758 0 6.36111e-015 -0 32.2391 86.3753 -27.5366 4.09506e-006 6.20394e-006 2.99999 -8.03009 -4.95139 -0.69763 175.906 -4.09348 5.87557 180 7.01521e-015 178.814 176.296 11.0768 -179.977 -5.44318e-007 -6.69345e-007 0.150568 -19.7346 69.2747 20.6562 8.13649 25.2326 -3.48773 179.923 -5.84965 -0.153424 4.54188e-006 -4.6773e-006 -1.20819 -2.38639 -8.38637 0.0345131 -4.13338e-007 -2.09623e-006 -0.11554 19.2437 68.7354 -20.1578 -8.13649 25.2327 3.48774 
54.9353 84.5027 3.75015 1.49458 -10.7024 0.0368426 -0.185638 -0.431739 0.049075 -0.374433 3.13913 0.132234 -0.376494 4.78417 0.141391 -11.8549 6.53242 -0.49165 13.8676 5.30868 -3.41961 63.6447 1.52194 0.349205 124.116 41.8696 -48.5856 -1.5572e-007 -3.73905e-007 4.88896e-007 -12.2544 79.5508 7.49525 -5.17349e-006 2.44914e-006 -3 8.0301 -4.95138 0.697613 -71.5949 -5.74341 4.18573 -122.583 37.6367 46.1899 -3.18055e-015 -6.36111e-015 -0 32.4263 86.3962 -27.724 4.09506e-006 6.20394e-006 2.99999 -8.03009 -4.95139 -0.69763 175.911 -4.08768 5.87309 180 7.01521e-015 178.814 176.296 11.0761 -179.976 -5.44318e-007 -6.69345e-007 0.150595 -19.7345 69.2746 20.6561 8.13649 25.2326 -3.48773 179.927 -5.83787 -0.154422 4.54188e-006 -4.6773e-006 -1.2082 -2.38535 -8.39347 0.0347917 -4.13338e-007 -2.09623e-006 -0.115637 19.2432 68.7348 -20.1572 -8.13649 25.2327 3.48774 
